<svg xmlns="http://www.w3.org/2000/svg" width="500" height="1200" viewBox="0 0 500 1200"><rect width="100%" height="100%" fill="#DDDDDD"/><path fill="#999999" d="m111.715 585.28-1.5 8.88q1.42-.29 2.71-.43 1.3-.13 2.51-.13 3.36 0 5.93 1 2.57 1.01 4.31 2.78t2.62 4.14q.89 2.38.89 5.12 0 3.39-1.2 6.19-1.19 2.81-3.31 4.8-2.13 1.99-5.03 3.08-2.91 1.09-6.33 1.09-2.01 0-3.81-.41t-3.38-1.11q-1.57-.69-2.92-1.59-1.34-.9-2.4-1.9l2.24-3.1q.71-1 1.86-1 .74 0 1.5.47.77.47 1.76 1.03t2.33 1.03q1.34.48 3.23.48 2.01 0 3.54-.65t2.55-1.82q1.02-1.16 1.54-2.77.51-1.61.51-3.5 0-3.48-2.02-5.44t-5.97-1.96q-3.04 0-6.23 1.12l-4.54-1.3 3.54-20.71h21.06v3.1q0 1.56-.97 2.54-.97.97-3.3.97zm53.49 14.72q0 5.58-1.2 9.69-1.19 4.12-3.3 6.8-2.11 2.69-4.99 4-2.87 1.31-6.21 1.31-3.33 0-6.18-1.31-2.84-1.31-4.94-4-2.09-2.68-3.27-6.8-1.18-4.11-1.18-9.69 0-5.6 1.18-9.7t3.27-6.79q2.1-2.68 4.94-4 2.85-1.31 6.18-1.31 3.34 0 6.21 1.31 2.88 1.32 4.99 4 2.11 2.69 3.3 6.79 1.2 4.1 1.2 9.7m-7.52 0q0-4.63-.68-7.67t-1.82-4.84q-1.13-1.8-2.61-2.52-1.47-.72-3.07-.72-1.56 0-3.02.72t-2.58 2.52-1.79 4.84q-.66 3.04-.66 7.67t.66 7.67q.67 3.04 1.79 4.84t2.58 2.52 3.02.72q1.6 0 3.07-.72 1.48-.72 2.61-2.52 1.14-1.8 1.82-4.84t.68-7.67m41.74 0q0 5.58-1.2 9.69-1.19 4.12-3.3 6.8-2.11 2.69-4.99 4-2.87 1.31-6.21 1.31-3.33 0-6.18-1.31-2.84-1.31-4.94-4-2.09-2.68-3.27-6.8-1.18-4.11-1.18-9.69 0-5.6 1.18-9.7t3.27-6.79q2.1-2.68 4.94-4 2.85-1.31 6.18-1.31 3.34 0 6.21 1.31 2.88 1.32 4.99 4 2.11 2.69 3.3 6.79 1.2 4.1 1.2 9.7m-7.52 0q0-4.63-.68-7.67t-1.82-4.84q-1.13-1.8-2.61-2.52-1.47-.72-3.07-.72-1.56 0-3.02.72t-2.58 2.52-1.79 4.84q-.66 3.04-.66 7.67t.66 7.67q.67 3.04 1.79 4.84t2.58 2.52 3.02.72q1.6 0 3.07-.72 1.48-.72 2.61-2.52 1.14-1.8 1.82-4.84t.68-7.67m54.36 11.57-3.86 3.8-10-10-10.09 10.06-3.86-3.81 10.08-10.11-9.61-9.62 3.83-3.84 9.62 9.62 9.56-9.56 3.89 3.84-9.59 9.59zm40.39 4.3h7.67v5.46h-23.6v-5.46h8.64V591q0-1.47.09-3.03l-6.13 5.13q-.54.41-1.05.51-.52.11-.98.02-.45-.09-.81-.31-.35-.22-.53-.49l-2.3-3.15 13.01-11.07h5.99zm29.35-1.33h10.95q1.18 0 1.87.67.69.66.69 1.75v4.37h-29.26v-2.42q0-.74.31-1.55t.99-1.46l12.95-12.98q1.62-1.65 2.9-3.15 1.29-1.51 2.14-2.98.86-1.48 1.31-3 .46-1.52.46-3.2 0-1.53-.44-2.7-.44-1.16-1.25-1.96-.82-.8-1.95-1.19-1.14-.4-2.55-.4-1.3 0-2.41.37-1.1.36-1.96 1.03-.85.66-1.44 1.55-.59.88-.89 1.94-.5 1.36-1.3 1.8-.79.45-2.3.21l-3.83-.68q.44-3.07 1.71-5.38 1.27-2.32 3.17-3.87t4.36-2.33q2.47-.78 5.3-.78 2.95 0 5.4.87t4.19 2.46q1.74 1.6 2.71 3.84.98 2.24.98 4.98 0 2.36-.7 4.37-.69 2.01-1.86 3.84-1.16 1.82-2.73 3.54-1.56 1.71-3.27 3.48l-9.62 9.82q1.39-.41 2.76-.63 1.37-.23 2.61-.23m48.97-14.54q0 5.58-1.19 9.69-1.2 4.12-3.31 6.8-2.11 2.69-4.98 4-2.88 1.31-6.21 1.31-3.34 0-6.18-1.31-2.85-1.31-4.94-4-2.1-2.68-3.28-6.8-1.18-4.11-1.18-9.69 0-5.6 1.18-9.7t3.28-6.79q2.09-2.68 4.94-4 2.84-1.31 6.18-1.31 3.33 0 6.21 1.31 2.87 1.32 4.98 4 2.11 2.69 3.31 6.79 1.19 4.1 1.19 9.7m-7.52 0q0-4.63-.68-7.67t-1.81-4.84q-1.14-1.8-2.61-2.52-1.48-.72-3.07-.72-1.57 0-3.03.72t-2.58 2.52-1.78 4.84q-.67 3.04-.67 7.67t.67 7.67q.66 3.04 1.78 4.84t2.58 2.52 3.03.72q1.59 0 3.07-.72 1.47-.72 2.61-2.52 1.13-1.8 1.81-4.84t.68-7.67m41.74 0q0 5.58-1.19 9.69-1.2 4.12-3.31 6.8-2.11 2.69-4.98 4-2.88 1.31-6.21 1.31-3.34 0-6.18-1.31-2.85-1.31-4.94-4-2.1-2.68-3.28-6.8-1.18-4.11-1.18-9.69 0-5.6 1.18-9.7t3.28-6.79q2.09-2.68 4.94-4 2.84-1.31 6.18-1.31 3.33 0 6.21 1.31 2.87 1.32 4.98 4 2.11 2.69 3.31 6.79 1.19 4.1 1.19 9.7m-7.52 0q0-4.63-.68-7.67t-1.81-4.84q-1.14-1.8-2.61-2.52-1.48-.72-3.07-.72-1.57 0-3.03.72t-2.58 2.52-1.78 4.84q-.67 3.04-.67 7.67t.67 7.67q.66 3.04 1.78 4.84t2.58 2.52 3.03.72q1.59 0 3.07-.72 1.47-.72 2.61-2.52 1.13-1.8 1.81-4.84t.68-7.67"/></svg>