<svg xmlns="http://www.w3.org/2000/svg" width="650" height="1200" viewBox="0 0 650 1200"><rect width="100%" height="100%" fill="#DDDDDD"/><path fill="#999999" d="m163.605 572.165-16.51 20.21-1.93 2.39q1.62-.81 3.49-1.25 1.86-.45 4.02-.45 3.16 0 6.14 1.04t5.25 3.14q2.28 2.1 3.66 5.22 1.39 3.12 1.39 7.28 0 3.88-1.43 7.29-1.42 3.41-4 5.95t-6.22 4q-3.64 1.47-8.03 1.47-4.46 0-8-1.43-3.55-1.42-6.05-3.98t-3.83-6.16-1.33-7.99q0-3.93 1.6-8.07t4.95-8.6l13.28-17.83q.69-.92 2.02-1.58 1.33-.65 3.06-.65zm-14.36 48.51q2.27 0 4.18-.77t3.27-2.16q1.37-1.38 2.14-3.25t.77-4.06q0-2.39-.73-4.29-.73-1.91-2.08-3.24t-3.24-2.02q-1.88-.69-4.15-.69-2.28 0-4.12.77-1.85.77-3.16 2.13-1.31 1.37-2.04 3.24t-.73 4.02q0 2.31.63 4.22.64 1.9 1.89 3.25t3.1 2.1 4.27.75m40-39.89-1.96 11.59q1.85-.38 3.54-.56 1.7-.17 3.27-.17 4.39 0 7.74 1.31t5.62 3.62q2.28 2.31 3.43 5.41 1.16 3.1 1.16 6.68 0 4.42-1.56 8.08t-4.33 6.26q-2.78 2.6-6.57 4.02-3.79 1.43-8.26 1.43-2.62 0-4.96-.54-2.35-.54-4.41-1.45-2.06-.9-3.81-2.08-1.76-1.17-3.14-2.48l2.92-4.04q.93-1.31 2.43-1.31.96 0 1.96.62 1 .61 2.29 1.34t3.05 1.35q1.75.62 4.21.62 2.62 0 4.62-.85t3.33-2.37 2-3.62q.68-2.1.68-4.56 0-4.54-2.64-7.1t-7.8-2.56q-3.96 0-8.12 1.46l-5.93-1.69 4.62-27.03h27.49v4.04q0 2.04-1.27 3.31t-4.31 1.27zm69.8 19.21q0 7.28-1.56 12.65-1.55 5.37-4.31 8.88-2.75 3.5-6.5 5.21-3.76 1.72-8.11 1.72t-8.06-1.72q-3.72-1.71-6.45-5.21-2.74-3.51-4.28-8.88t-1.54-12.65q0-7.31 1.54-12.66t4.28-8.86q2.73-3.5 6.45-5.21 3.71-1.72 8.06-1.72t8.11 1.72q3.75 1.71 6.5 5.21 2.76 3.51 4.31 8.86 1.56 5.35 1.56 12.66m-9.81 0q0-6.04-.89-10.01-.88-3.96-2.37-6.31-1.48-2.35-3.4-3.29-1.93-.94-4.01-.94-2.04 0-3.94.94-1.91.94-3.37 3.29-1.47 2.35-2.33 6.31-.87 3.97-.87 10.01 0 6.05.87 10.01.86 3.97 2.33 6.32 1.46 2.35 3.37 3.29 1.9.94 3.94.94 2.08 0 4.01-.94 1.92-.94 3.4-3.29 1.49-2.35 2.37-6.32.89-3.96.89-10.01m70.95 15.1-5.04 4.96-13.05-13.05-13.17 13.13-5.04-4.97 13.16-13.2-12.55-12.55 5.01-5.01 12.55 12.55 12.47-12.47 5.08 5-12.51 12.52zm52.71 5.62h10.01v7.12h-30.8v-7.12h11.28v-32.46q0-1.92.11-3.96l-8 6.7q-.7.53-1.37.67-.67.13-1.27.02-.6-.12-1.06-.41-.46-.28-.69-.63l-3.01-4.12 16.98-14.44h7.82zm38.31-1.74h14.28q1.54 0 2.44.87.91.87.91 2.29v5.7h-38.19v-3.16q0-.96.4-2.02.41-1.06 1.29-1.9l16.9-16.94q2.12-2.16 3.79-4.12 1.68-1.97 2.8-3.89 1.11-1.93 1.71-3.91t.6-4.18q0-2-.58-3.52t-1.64-2.56-2.54-1.56-3.33-.52q-1.69 0-3.14.48-1.44.48-2.56 1.35-1.11.87-1.88 2.02-.77 1.16-1.16 2.54-.65 1.77-1.69 2.35t-3.01.27l-5-.89q.58-4 2.23-7.02 1.66-3.02 4.14-5.05 2.48-2.02 5.7-3.04 3.21-1.02 6.91-1.02 3.85 0 7.05 1.14 3.19 1.13 5.46 3.21t3.54 5.01q1.28 2.92 1.28 6.51 0 3.08-.91 5.69-.9 2.62-2.43 5.01-1.52 2.38-3.56 4.62-2.04 2.23-4.27 4.54l-12.55 12.82q1.81-.54 3.6-.83t3.41-.29m63.91-18.98q0 7.28-1.56 12.65t-4.32 8.88q-2.75 3.5-6.5 5.21-3.76 1.72-8.11 1.72t-8.06-1.72q-3.72-1.71-6.45-5.21-2.73-3.51-4.27-8.88t-1.54-12.65q0-7.31 1.54-12.66t4.27-8.86q2.73-3.5 6.45-5.21 3.71-1.72 8.06-1.72t8.11 1.72q3.75 1.71 6.5 5.21 2.76 3.51 4.32 8.86t1.56 12.66m-9.82 0q0-6.04-.89-10.01-.88-3.96-2.36-6.31-1.49-2.35-3.41-3.29-1.93-.94-4.01-.94-2.04 0-3.94.94-1.91.94-3.37 3.29t-2.33 6.31q-.87 3.97-.87 10.01 0 6.05.87 10.01.87 3.97 2.33 6.32t3.37 3.29q1.9.94 3.94.94 2.08 0 4.01-.94 1.92-.94 3.41-3.29 1.48-2.35 2.36-6.32.89-3.96.89-10.01m54.48 0q0 7.28-1.56 12.65t-4.32 8.88q-2.75 3.5-6.5 5.21-3.76 1.72-8.11 1.72t-8.06-1.72q-3.72-1.71-6.45-5.21-2.73-3.51-4.27-8.88t-1.54-12.65q0-7.31 1.54-12.66t4.27-8.86q2.73-3.5 6.45-5.21 3.71-1.72 8.06-1.72t8.11 1.72q3.75 1.71 6.5 5.21 2.76 3.51 4.32 8.86t1.56 12.66m-9.82 0q0-6.04-.89-10.01-.88-3.96-2.36-6.31-1.49-2.35-3.41-3.29-1.93-.94-4.01-.94-2.04 0-3.94.94-1.91.94-3.37 3.29t-2.33 6.31q-.87 3.97-.87 10.01 0 6.05.87 10.01.87 3.97 2.33 6.32t3.37 3.29q1.9.94 3.94.94 2.08 0 4.01-.94 1.92-.94 3.41-3.29 1.48-2.35 2.36-6.32.89-3.96.89-10.01"/></svg>